<svg viewBox="-6 -6 12 12" xmlns="http://www.w3.org/2000/svg">
  <line x1="-6" y1="0" x2="6" y2="0" stroke="black" stroke-width="0.05"/>
  <line x1="0" y1="6" x2="0" y2="-6" stroke="black" stroke-width="0.05"/>
  <g font-size="0.4">
    <line x1="-4" y1="0.1" x2="-4" y2="-0.1" stroke="black" stroke-width="0.05"/><text x="-4.15" y="0.3">-4</text>
    <line x1="-2" y1="0.1" x2="-2" y2="-0.1" stroke="black" stroke-width="0.05"/><text x="-2.15" y="0.3">-2</text>
    <line x1="2" y1="0.1" x2="2" y2="-0.1" stroke="black" stroke-width="0.05"/><text x="1.85" y="0.3">2</text>
    <line x1="4" y1="0.1" x2="4" y2="-0.1" stroke="black" stroke-width="0.05"/><text x="3.85" y="0.3">4</text>
    <line x1="-0.1" y1="4" x2="0.1" y2="4" stroke="black" stroke-width="0.05"/><text x="0.15" y="3.85">-4</text>
    <line x1="-0.1" y1="2" x2="0.1" y2="2" stroke="black" stroke-width="0.05"/><text x="0.15" y="1.85">-2</text>
    <line x1="-0.1" y1="-2" x2="0.1" y2="-2" stroke="black" stroke-width="0.05"/><text x="0.15" y="-2.15">2</text>
    <line x1="-0.1" y1="-4" x2="0.1" y2="-4" stroke="black" stroke-width="0.05"/><text x="0.15" y="-4.15">4</text>
  </g>

  <circle cx="0" cy="0" r="4" fill="none" stroke="#999" stroke-width="0.05"/>
  <line x1="0" y1="0" x2="3" y2="-3" stroke="blue" stroke-width="0.08"/>
  <circle cx="3" cy="-3" r="0.15" fill="red"/>
  <path d="M 2,0 A 2 2 0 0 0 1.4,-1.4" stroke="green" fill="none" stroke-width="0.06"/>
  <text x="1.5" y="-0.5" font-size="0.6">θ</text>
  <text x="3.2" y="-3.3" font-size="0.6">z</text>
</svg>
