<svg viewBox="-0.1 -1.3 1.9 4.6" xmlns="http://www.w3.org/2000/svg">
  <line x1="0" y1="0" x2="1" y2="0" stroke="black" stroke-width="0.02"/>
  <line x1="0" y1="3" x2="0" y2="-1" stroke="black" stroke-width="0.02"/>
  <g font-size="0.14"><line x1="0.2" y1="-0.048" x2="0.2" y2="0.048" stroke="black" stroke-width="0.02"/><text x="0.074" y="0.104" >0.2</text><line x1="0.4" y1="-0.048" x2="0.4" y2="0.048" stroke="black" stroke-width="0.02"/><text x="0.274" y="0.104" >0.4</text><line x1="0.6" y1="-0.048" x2="0.6" y2="0.048" stroke="black" stroke-width="0.02"/><text x="0.474" y="0.104" >0.6</text><line x1="0.8" y1="-0.048" x2="0.8" y2="0.048" stroke="black" stroke-width="0.02"/><text x="0.674" y="0.104" >0.8</text><line x1="1" y1="-0.048" x2="1" y2="0.048" stroke="black" stroke-width="0.02"/><text x="0.958" y="0.104" >1</text></g>
  <g font-size="0.14"><line x1="-0.012" y1="3" x2="0.012" y2="3" stroke="black" stroke-width="0.02"/><text x="0.0288" y="3.0168" >-3</text><line x1="-0.012" y1="2" x2="0.012" y2="2" stroke="black" stroke-width="0.02"/><text x="0.0288" y="2.0168" >-2</text><line x1="-0.012" y1="1" x2="0.012" y2="1" stroke="black" stroke-width="0.02"/><text x="0.0288" y="1.0168" >-1</text><line x1="-0.012" y1="-1" x2="0.012" y2="-1" stroke="black" stroke-width="0.02"/><text x="0.0288" y="-1.056" >1</text></g>
  <text x="0.76" y="0.056" font-size="0.175">t</text>
  <text x="0.06" y="-0.88" font-size="0.175">Bₜ</text>
  <polyline points="0,0 0.0033,-0.0055 0.0067,-0.0776 0.01,-0.0239 0.0133,-0.0812 0.0167,-0.0662 0.02,-0.0511 0.0233,-0.1608 0.0267,-0.1699 0.03,-0.1674 0.0333,-0.2095 0.0367,-0.2746 0.04,-0.2728 0.0433,-0.3067 0.0467,-0.2505 0.05,-0.2293 0.0533,-0.2041 0.0567,-0.1271 0.06,-0.04 0.0633,0.0539 0.0667,0.0677 0.07,0.0776 0.0733,0.0961 0.0767,0.0921 0.08,0.1692 0.0833,0.1738 0.0867,0.1601 0.09,0.1167 0.0933,0.1656 0.0967,0.1887 0.1,0.305 0.1033,0.3341 0.1067,0.4609 0.11,0.5429 0.1133,0.4793 0.1167,0.6064 0.12,0.5603 0.1233,0.5413 0.1267,0.5594 0.13,0.5329 0.1333,0.5024 0.1367,0.442 0.14,0.4553 0.1433,0.4895 0.1467,0.5244 0.15,0.5814 0.1533,0.584 0.1567,0.6294 0.16,0.5677 0.1633,0.6756 0.1667,0.7387 0.17,0.7938 0.1733,0.9146 0.1767,0.8048 0.18,0.9438 0.1833,0.9602 0.1867,0.9905 0.19,0.8949 0.1933,1.0095 0.1967,0.9476 0.2,0.9899 0.2033,0.9988 0.2067,1.0376 0.21,1.0006 0.2133,1.0663 0.2167,1.0708 0.22,1.0504 0.2233,0.9442 0.2267,1.083 0.23,0.995 0.2333,0.9403 0.2367,0.9682 0.24,0.9506 0.2433,0.9775 0.2467,0.8824 0.25,0.8703 0.2533,0.8827 0.2567,0.8959 0.26,0.9075 0.2633,0.9176 0.2667,0.9684 0.27,0.8496 0.2733,0.9599 0.2767,1.1681 0.28,1.1752 0.2833,1.1836 0.2867,1.1621 0.29,1.1739 0.2933,1.1825 0.2967,1.1633 0.3,1.1074 0.3033,1.1332 0.3067,1.1548 0.31,1.0427 0.3133,1.0121 0.3167,1.069 0.32,0.9349 0.3233,0.8901 0.3267,0.9241 0.33,0.9919 0.3333,0.9746 0.3367,1.0227 0.34,1.0837 0.3433,1.1586 0.3467,1.1878 0.35,1.1239 0.3533,1.1489 0.3567,1.2326 0.36,1.1939 0.3633,1.1902 0.3667,1.1414 0.37,1.072 0.3733,1.0818 0.3767,1.0902 0.38,1.0928 0.3833,1.1583 0.3867,1.1197 0.39,1.0404 0.3933,1.0304 0.3967,1.0441 0.4,1.0591 0.4033,1.1042 0.4067,1.1506 0.41,1.1737 0.4133,1.2224 0.4167,1.2476 0.42,1.3387 0.4233,1.3185 0.4267,1.3156 0.43,1.3822 0.4333,1.5148 0.4367,1.5153 0.44,1.4516 0.4433,1.4939 0.4467,1.5218 0.45,1.5546 0.4533,1.5169 0.4567,1.5698 0.46,1.5129 0.4633,1.5304 0.4667,1.477 0.47,1.4751 0.4733,1.4884 0.4767,1.5738 0.48,1.6135 0.4833,1.6285 0.4867,1.5905 0.49,1.5763 0.4933,1.6165 0.4967,1.5929 0.5,1.5359 0.5033,1.5445 0.5067,1.5698 0.51,1.5925 0.5133,1.5457 0.5167,1.5147 0.52,1.5683 0.5233,1.5467 0.5267,1.5744 0.53,1.6178 0.5333,1.5462 0.5367,1.4988 0.54,1.5406 0.5433,1.5361 0.5467,1.5071 0.55,1.544 0.5533,1.551 0.5567,1.5125 0.56,1.6158 0.5633,1.5969 0.5667,1.5542 0.57,1.5251 0.5733,1.6026 0.5767,1.5842 0.58,1.634 0.5833,1.6011 0.5867,1.5662 0.59,1.5537 0.5933,1.5979 0.5967,1.632 0.6,1.5827 0.6033,1.6346 0.6067,1.606 0.61,1.5765 0.6133,1.5925 0.6167,1.4543 0.62,1.4502 0.6233,1.3263 0.6267,1.4427 0.63,1.5723 0.6333,1.5156 0.6367,1.4788 0.64,1.4969 0.6433,1.5 0.6467,1.6098 0.65,1.6462 0.6533,1.7058 0.6567,1.7186 0.66,1.6675 0.6633,1.6644 0.6667,1.643 0.67,1.6833 0.6733,1.7084 0.6767,1.7019 0.68,1.7182 0.6833,1.6452 0.6867,1.6957 0.69,1.5866 0.6933,1.6432 0.6967,1.582 0.7,1.6266 0.7033,1.5315 0.7067,1.5236 0.71,1.5006 0.7133,1.4576 0.7167,1.4943 0.72,1.5544 0.7233,1.6714 0.7267,1.601 0.73,1.6412 0.7333,1.6754 0.7367,1.6772 0.74,1.5623 0.7433,1.6621 0.7467,1.6477 0.75,1.6706 0.7533,1.6399 0.7567,1.7437 0.76,1.7667 0.7633,1.7182 0.7667,1.6282 0.77,1.536 0.7733,1.5853 0.7767,1.5822 0.78,1.5885 0.7833,1.668 0.7867,1.7511 0.79,1.7074 0.7933,1.6933 0.7967,1.7015 0.8,1.6313 0.8033,1.6891 0.8067,1.6587 0.81,1.6582 0.8133,1.6616 0.8167,1.6333 0.82,1.6231 0.8233,1.6077 0.8267,1.5924 0.83,1.4805 0.8333,1.4984 0.8367,1.44 0.84,1.4049 0.8433,1.425 0.8467,1.3791 0.85,1.4286 0.8533,1.3616 0.8567,1.4083 0.86,1.4366 0.8633,1.418 0.8667,1.3699 0.87,1.3175 0.8733,1.2659 0.8767,1.2779 0.88,1.3331 0.8833,1.3013 0.8867,1.2839 0.89,1.3389 0.8933,1.2827 0.8967,1.2712 0.9,1.3265 0.9033,1.301 0.9067,1.3775 0.91,1.4282 0.9133,1.405 0.9167,1.4949 0.92,1.4927 0.9233,1.5707 0.9267,1.5282 0.93,1.5702 0.9333,1.5596 0.9367,1.6464 0.94,1.6662 0.9433,1.6116 0.9467,1.5852 0.95,1.6913 0.9533,1.6379 0.9567,1.5864 0.96,1.6082 0.9633,1.5263 0.9667,1.5875 0.97,1.5924 0.9733,1.5281 0.9767,1.4525 0.98,1.3785 0.9833,1.4417 0.9867,1.5445 0.99,1.5219 0.9933,1.6046 0.9967,1.6122 1,1.6861" fill="none" stroke="blue" stroke-width="0.035"/>
  <circle cx="0" cy="0" r="0.03" fill="black"/>
</svg>
